<?xml version="1.0" encoding="utf-8"?><svg xml:space="preserve" viewBox="0 0 100 100" y="0" x="0" xmlns="http://www.w3.org/2000/svg" id="圖層_1" version="1.1" width="200px" height="200px" xmlns:xlink="http://www.w3.org/1999/xlink" style="width:100%;height:100%;background-size:initial;background-repeat-y:initial;background-repeat-x:initial;background-position-y:initial;background-position-x:initial;background-origin:initial;background-image:initial;background-color:rgb(255, 255, 255);background-clip:initial;background-attachment:initial;animation-play-state:paused" ><g class="ldl-scale" style="transform-origin:50% 50%;transform:rotate(0deg) scale(0.8, 0.8);animation-play-state:paused" ><path stroke-miterlimit="10" stroke-linecap="round" stroke-width="3" stroke="#a0c8d7" fill="none" d="M29.5 46.3c4.6-3.9 10.7-5.9 16.6-5.5 7.1.5 13.9 4.1 20.9 3.3 2-.2 4-.8 5.6-2 2.3-1.7 3.7-4.7 3.3-7.6-.4-2.9-2.7-5.4-5.5-6-2.8-.6-6 1-7.1 3.7-.7 1.7-.5 3.9.8 5.2 1.3 1.3 3.7 1.5 5 .1" style="stroke:rgb(160, 200, 215);animation-play-state:paused" ></path>
<path stroke-miterlimit="10" stroke-linecap="round" stroke-width="3" stroke="#a0c8d7" fill="none" d="M25.9 53.9c4.7-3.5 10-6.2 15.6-8" style="stroke:rgb(160, 200, 215);animation-play-state:paused" ></path>
<path stroke-miterlimit="10" stroke-linecap="round" stroke-width="3" stroke="#77a4bd" fill="none" d="M36.4 54.7c4.6-3.8 10.6-5.9 16.5-5.9 9.5 0 18.3 5.2 27.8 5.2 2.7 0 5.7-.6 7.6-2.6 2.1-2.2 2.3-6.1.3-8.3-2.1-2.3-6.2-2.2-8.1.2-1 1.3-1.3 3.3-.2 4.6s3.5 1.2 4.2-.3" style="stroke:rgb(119, 164, 189);animation-play-state:paused" ></path>
<path stroke-miterlimit="10" stroke-linecap="round" stroke-width="3" stroke="#a0c8d7" fill="none" d="M10 67.1c4.4 3.2 10.7 2.5 15.9.7 6.2-2.2 11.9-5.7 17.8-8.8 2.2-1.2 4.4-2.3 6.8-2.9 3.2-.8 6.6-.7 9.7.4 1.6.6 3.1 1.4 4.2 2.6 2.1 2.3 2.5 6 1 8.7-1.6 2.7-5 4.2-8 3.5-.8-.2-1.7-.5-2.3-1.1-2.3-2.2-1.5-7.3 2.4-7 1.1.1 2.1.7 2.6 1.7" style="stroke:rgb(160, 200, 215);animation-play-state:paused" ></path>
<metadata xmlns:d="https://loading.io/stock/" style="animation-play-state:paused" ><d:name style="animation-play-state:paused" >wind</d:name>


<d:tags style="animation-play-state:paused" >breeze,blow,flow,current,water,stream,air,atmosphere,wind,weather</d:tags>


<d:license style="animation-play-state:paused" >by</d:license>


<d:slug style="animation-play-state:paused" >to8zzb</d:slug></metadata></g><!-- generated by https://loading.io/ --></svg>